<svg width="25" height="25" viewBox="0 0 25 25" fill="none" xmlns="http://www.w3.org/2000/svg">
<rect width="25" height="25" fill="#B8B8B8"/>
<rect x="2" y="3" width="2" height="2" fill="#224A88"/>
<rect x="2" y="5" width="2" height="2" fill="#224A88"/>
<rect x="4" y="7" width="2" height="2" fill="#224A88"/>
<rect x="6" y="3" width="2" height="2" fill="#224A88"/>
<rect x="6" y="5" width="2" height="2" fill="#224A88"/>
<rect x="9" y="7" width="2" height="2" fill="#224A88"/>
<rect x="9" y="18" width="2" height="2" fill="#224A88"/>
<rect x="16" y="18" width="2" height="2" fill="#224A88"/>
<rect x="6" y="7" width="2" height="2" fill="#224A88"/>
<rect x="9" y="5" width="2" height="2" fill="#224A88"/>
<rect x="9" y="16" width="2" height="2" fill="#224A88"/>
<rect x="16" y="16" width="2" height="2" fill="#224A88"/>
<rect x="9" y="3" width="2" height="2" fill="#224A88"/>
<rect x="9" y="14" width="2" height="2" fill="#224A88"/>
<rect x="16" y="14" width="2" height="2" fill="#224A88"/>
<rect x="9" y="9" width="2" height="2" fill="#224A88"/>
<rect x="9" y="20" width="2" height="2" fill="#224A88"/>
<rect x="16" y="20" width="2" height="2" fill="#224A88"/>
<rect x="13" y="3" width="2" height="2" fill="#224A88"/>
<rect x="11" y="9" width="2" height="2" fill="#224A88"/>
<rect x="11" y="20" width="2" height="2" fill="#224A88"/>
<rect x="18" y="20" width="2" height="2" fill="#224A88"/>
<rect x="18" y="14" width="2" height="2" fill="#224A88"/>
<rect x="18" y="17" width="2" height="2" fill="#224A88"/>
<rect x="13" y="9" width="2" height="2" fill="#224A88"/>
<rect x="13" y="20" width="2" height="2" fill="#224A88"/>
<rect x="20" y="20" width="2" height="2" fill="#224A88"/>
<rect x="20" y="14" width="2" height="2" fill="#224A88"/>
<rect x="13" y="7" width="2" height="2" fill="#224A88"/>
<rect x="13" y="5" width="2" height="2" fill="#224A88"/>
<rect x="16" y="3" width="2" height="2" fill="#224A88"/>
<rect x="2" y="14" width="2" height="2" fill="#224A88"/>
<rect x="18" y="3" width="2" height="2" fill="#224A88"/>
<rect x="4" y="14" width="2" height="2" fill="#224A88"/>
<rect x="20" y="5" width="2" height="2" fill="#224A88"/>
<rect x="6" y="16" width="2" height="2" fill="#224A88"/>
<rect x="20" y="3" width="2" height="2" fill="#224A88"/>
<rect x="6" y="14" width="2" height="2" fill="#224A88"/>
<rect x="16" y="7" width="2" height="2" fill="#224A88"/>
<rect x="2" y="18" width="2" height="2" fill="#224A88"/>
<rect x="18" y="6" width="2" height="2" fill="#224A88"/>
<rect x="4" y="17" width="2" height="2" fill="#224A88"/>
<rect x="20" y="9" width="2" height="2" fill="#224A88"/>
<rect x="6" y="20" width="2" height="2" fill="#224A88"/>
<rect x="16" y="9" width="2" height="2" fill="#224A88"/>
<rect x="2" y="20" width="2" height="2" fill="#224A88"/>
<rect x="18" y="9" width="2" height="2" fill="#224A88"/>
<rect x="4" y="20" width="2" height="2" fill="#224A88"/>
<rect x="2" y="7" width="2" height="2" fill="#224A88"/>
<rect x="2" y="9" width="2" height="2" fill="#224A88"/>
<rect x="4" y="3" width="2" height="2" fill="#224A88"/>
</svg>
