<svg width="12" height="15" viewBox="0 0 12 15" fill="none" xmlns="http://www.w3.org/2000/svg">
<path d="M6.252 12.096C5.676 12.096 5.18 11.948 4.764 11.652C4.356 11.348 4.076 10.94 3.924 10.428C3.82 10.076 3.768 9.58 3.768 8.94C3.768 8.364 3.82 7.876 3.924 7.476C4.068 6.98 4.348 6.584 4.764 6.288C5.18 5.984 5.676 5.832 6.252 5.832C6.836 5.832 7.34 5.98 7.764 6.276C8.196 6.572 8.476 6.94 8.604 7.38C8.644 7.524 8.668 7.644 8.676 7.74V7.764C8.676 7.82 8.64 7.856 8.568 7.872L7.968 7.956H7.944C7.888 7.956 7.852 7.92 7.836 7.848L7.8 7.668C7.728 7.364 7.552 7.108 7.272 6.9C6.992 6.684 6.652 6.576 6.252 6.576C5.852 6.576 5.516 6.684 5.244 6.9C4.98 7.108 4.808 7.388 4.728 7.74C4.656 8.044 4.62 8.448 4.62 8.952C4.62 9.48 4.656 9.888 4.728 10.176C4.808 10.536 4.98 10.824 5.244 11.04C5.516 11.248 5.852 11.352 6.252 11.352C6.644 11.352 6.98 11.252 7.26 11.052C7.548 10.844 7.728 10.58 7.8 10.26V10.212L7.812 10.164C7.82 10.084 7.868 10.052 7.956 10.068L8.544 10.164C8.624 10.18 8.66 10.224 8.652 10.296L8.604 10.536C8.484 11 8.208 11.376 7.776 11.664C7.344 11.952 6.836 12.096 6.252 12.096Z" fill="#224A88"/>
<circle cx="6" cy="9" r="5.5" stroke="#224A88"/>
</svg>
