<svg width="168" height="37" viewBox="0 0 168 37" fill="none" xmlns="http://www.w3.org/2000/svg">
<path d="M17.9 0.899999C20.4 0.899999 22.3667 1.63333 23.8 3.1C25.2667 4.53333 26 6.46667 26 8.9C26 9.2 25.9667 9.71666 25.9 10.45C25.5667 13.2833 24.4333 15.5667 22.5 17.3C20.6 19.0333 18.25 19.9 15.45 19.9H5.4C5.33333 19.9 5.26667 19.9167 5.2 19.95C5.16667 19.9833 5.15 20.0333 5.15 20.1L3.25 35.5C3.25 35.6333 3.2 35.75 3.1 35.85C3 35.95 2.86667 36 2.7 36H1.1C0.966667 36 0.85 35.95 0.75 35.85C0.683334 35.75 0.666667 35.6333 0.7 35.5L4.9 1.4C4.9 1.26666 4.95 1.15 5.05 1.05C5.15 0.949998 5.28333 0.899999 5.45 0.899999H17.9ZM15.65 17.65C17.1167 17.65 18.4333 17.3 19.6 16.6C20.7667 15.8667 21.6833 14.8667 22.35 13.6C23.05 12.3333 23.4 10.9 23.4 9.3C23.4 7.46666 22.85 6.01666 21.75 4.95C20.6833 3.85 19.2333 3.3 17.4 3.3H7.4C7.26667 3.3 7.2 3.36666 7.2 3.5L5.5 17.45C5.46667 17.4833 5.46667 17.5333 5.5 17.6C5.53333 17.6333 5.58333 17.65 5.65 17.65H15.65ZM40.4621 36.4C37.3954 36.4 34.9621 35.55 33.1621 33.85C31.3621 32.15 30.4621 29.8833 30.4621 27.05C30.4621 26.6833 30.4954 26.1333 30.5621 25.4L33.5121 1.5C33.5121 1.36667 33.5621 1.25 33.6621 1.15C33.7621 1.05 33.8788 0.999998 34.0121 0.999998H35.6121C35.7788 0.999998 35.8954 1.05 35.9621 1.15C36.0621 1.25 36.0954 1.36667 36.0621 1.5L33.1121 25.5C33.0454 26.1 33.0121 26.5333 33.0121 26.8C33.0121 29 33.7121 30.7667 35.1121 32.1C36.5121 33.4 38.3954 34.05 40.7621 34.05C43.3621 34.05 45.5454 33.2667 47.3121 31.7C49.1121 30.1333 50.1621 28.0667 50.4621 25.5L53.4121 1.5C53.4788 1.16666 53.6621 0.999998 53.9621 0.999998H55.5621C55.8621 0.999998 56.0121 1.16666 56.0121 1.5L53.0621 25.4C52.7954 27.5667 52.0954 29.4833 50.9621 31.15C49.8288 32.8167 48.3454 34.1167 46.5121 35.05C44.7121 35.95 42.6954 36.4 40.4621 36.4ZM59.1527 36C58.8527 36 58.7027 35.8333 58.7027 35.5L58.9027 33.9C58.9694 33.6667 59.0694 33.45 59.2027 33.25L81.1027 3.6C81.1694 3.53333 81.1861 3.48333 81.1527 3.45C81.1194 3.38333 81.0694 3.35 81.0027 3.35H63.1527C62.8194 3.35 62.6861 3.18333 62.7527 2.85L62.9027 1.5C62.9694 1.16666 63.1527 0.999998 63.4527 0.999998H83.9027C84.2027 0.999998 84.3527 1.16666 84.3527 1.5L84.1527 3.1C84.0861 3.36666 83.9861 3.58333 83.8527 3.75L62.0027 33.4C61.9361 33.4333 61.9194 33.4833 61.9527 33.55C61.9861 33.6167 62.0361 33.65 62.1027 33.65H79.9027C80.2361 33.65 80.3694 33.8167 80.3027 34.15L80.1527 35.5C80.0861 35.8333 79.9027 36 79.6027 36H59.1527ZM85.6664 36C85.3664 36 85.2164 35.8333 85.2164 35.5L85.4164 33.9C85.4831 33.6667 85.5831 33.45 85.7164 33.25L107.616 3.6C107.683 3.53333 107.7 3.48333 107.666 3.45C107.633 3.38333 107.583 3.35 107.516 3.35H89.6664C89.3331 3.35 89.1997 3.18333 89.2664 2.85L89.4164 1.5C89.4831 1.16666 89.6664 0.999998 89.9664 0.999998H110.416C110.716 0.999998 110.866 1.16666 110.866 1.5L110.666 3.1C110.6 3.36666 110.5 3.58333 110.366 3.75L88.5164 33.4C88.4497 33.4333 88.4331 33.4833 88.4664 33.55C88.4997 33.6167 88.5497 33.65 88.6164 33.65H106.416C106.75 33.65 106.883 33.8167 106.816 34.15L106.666 35.5C106.6 35.8333 106.416 36 106.116 36H85.6664ZM114.78 36C114.447 36 114.313 35.8333 114.38 35.5L118.53 1.5C118.597 1.16666 118.78 0.999998 119.08 0.999998H120.68C120.98 0.999998 121.13 1.16666 121.13 1.5L117.18 33.45C117.18 33.5833 117.247 33.65 117.38 33.65H134.78C135.113 33.65 135.247 33.8167 135.18 34.15L135.03 35.5C134.963 35.8333 134.78 36 134.48 36H114.78ZM167.52 2.85C167.487 2.98333 167.42 3.1 167.32 3.2C167.22 3.3 167.104 3.35 166.97 3.35H148.57C148.437 3.35 148.37 3.41666 148.37 3.55L146.67 17.05C146.67 17.1833 146.737 17.25 146.87 17.25H159.92C160.254 17.25 160.387 17.4167 160.32 17.75L160.17 19.1C160.104 19.4333 159.92 19.6 159.62 19.6H146.57C146.437 19.6 146.37 19.6667 146.37 19.8L144.67 33.45C144.67 33.5833 144.737 33.65 144.87 33.65H163.22C163.52 33.65 163.67 33.8167 163.67 34.15L163.47 35.5C163.47 35.6333 163.42 35.75 163.32 35.85C163.22 35.95 163.087 36 162.92 36H142.27C141.937 36 141.804 35.8333 141.87 35.5L146.02 1.5C146.087 1.16666 146.27 0.999998 146.57 0.999998H167.22C167.387 0.999998 167.504 1.05 167.57 1.15C167.67 1.25 167.704 1.36667 167.67 1.5L167.52 2.85Z" fill="#224A88"/>
</svg>
