<svg width="20" height="20" viewBox="0 0 20 20" fill="none" xmlns="http://www.w3.org/2000/svg">
<path d="M19.9488 18.7052C19.9488 19.3912 19.3911 19.9488 18.7052 19.9488H1.29474C0.608804 19.9488 0.0511475 19.3912 0.0511475 18.7052V1.29474C0.0511475 0.608804 0.608804 0.0511475 1.29474 0.0511475H18.7052C19.3911 0.0511475 19.9488 0.608804 19.9488 1.29474V18.7052Z" fill="#224A88"/>
<path d="M16.1807 15.2575H3.81918C3.08227 15.2575 2.48242 14.6019 2.48242 13.7955V6.20449C2.48242 5.39866 3.08223 4.74249 3.81918 4.74249H16.1807C16.9176 4.74249 17.5175 5.39835 17.5175 6.20449V13.7955C17.5175 14.6016 16.9177 15.2575 16.1807 15.2575ZM3.81918 6.03968C3.66648 6.03968 3.57254 6.14652 3.57254 6.20449V13.7952C3.57254 13.8532 3.66648 13.9598 3.81918 13.9598H16.1807C16.3334 13.9598 16.4273 13.8532 16.4273 13.7952V6.20449C16.4273 6.14671 16.3334 6.04027 16.1807 6.04027H3.81918V6.03968Z" fill="white"/>
<path d="M16.6957 5.77437H10.0551L3.42342 5.77659L2.69006 6.75163L9.97881 11.0855L17.4203 6.75546L16.6957 5.77437Z" fill="white"/>
</svg>
