<svg width="250" height="123" viewBox="0 0 250 123" fill="none" xmlns="http://www.w3.org/2000/svg">
<rect opacity="0.4" y="23" width="250" height="100" fill="#333333"/>
<rect opacity="0.6" x="25" y="23" width="200" height="100" fill="#333333"/>
<rect opacity="0.8" x="50" y="23" width="150" height="100" fill="#333333"/>
<rect x="75" y="23" width="100" height="100" fill="#333333"/>
<rect width="3" height="3" transform="matrix(4.37114e-08 1 1 -4.37114e-08 241 6)" fill="#333333"/>
<rect width="3" height="3" transform="matrix(4.37114e-08 1 1 -4.37114e-08 238 6)" fill="#333333"/>
<rect width="3" height="3" transform="matrix(4.37114e-08 1 1 -4.37114e-08 235 3)" fill="#333333"/>
<rect width="3" height="3" transform="matrix(4.37114e-08 1 1 -4.37114e-08 229 0)" fill="#333333"/>
<rect width="3" height="3" transform="matrix(4.37114e-08 1 1 -4.37114e-08 229 3)" fill="#333333"/>
<rect width="3" height="3" transform="matrix(4.37114e-08 1 1 -4.37114e-08 229 6)" fill="#333333"/>
<rect width="3" height="3" transform="matrix(4.37114e-08 1 1 -4.37114e-08 232 6)" fill="#333333"/>
<rect width="3" height="3" transform="matrix(4.37114e-08 1 1 -4.37114e-08 232 3)" fill="#333333"/>
<rect width="3" height="3" transform="matrix(4.37114e-08 1 1 -4.37114e-08 235 6)" fill="#333333"/>
<line y1="-1.5" x2="40" y2="-1.5" transform="matrix(-1 0 0 1 250 12)" stroke="#333333" stroke-width="3"/>
<rect x="9" y="6" width="3" height="3" transform="rotate(90 9 6)" fill="#333333"/>
<rect x="12" y="6" width="3" height="3" transform="rotate(90 12 6)" fill="#333333"/>
<rect x="15" y="3" width="3" height="3" transform="rotate(90 15 3)" fill="#333333"/>
<rect x="21" width="3" height="3" transform="rotate(90 21 0)" fill="#333333"/>
<rect x="21" y="3" width="3" height="3" transform="rotate(90 21 3)" fill="#333333"/>
<rect x="21" y="6" width="3" height="3" transform="rotate(90 21 6)" fill="#333333"/>
<rect x="18" y="6" width="3" height="3" transform="rotate(90 18 6)" fill="#333333"/>
<rect x="18" y="3" width="3" height="3" transform="rotate(90 18 3)" fill="#333333"/>
<rect x="15" y="6" width="3" height="3" transform="rotate(90 15 6)" fill="#333333"/>
<line y1="10.5" x2="40" y2="10.5" stroke="#333333" stroke-width="3"/>
<g opacity="0.8">
<rect width="3" height="3" transform="matrix(4.37114e-08 1 1 -4.37114e-08 223 6)" fill="#333333"/>
<rect width="3" height="3" transform="matrix(4.37114e-08 1 1 -4.37114e-08 220 6)" fill="#333333"/>
<rect width="3" height="3" transform="matrix(4.37114e-08 1 1 -4.37114e-08 217 3)" fill="#333333"/>
<rect width="3" height="3" transform="matrix(4.37114e-08 1 1 -4.37114e-08 211 0)" fill="#333333"/>
<rect width="3" height="3" transform="matrix(4.37114e-08 1 1 -4.37114e-08 211 3)" fill="#333333"/>
<rect width="3" height="3" transform="matrix(4.37114e-08 1 1 -4.37114e-08 211 6)" fill="#333333"/>
<rect width="3" height="3" transform="matrix(4.37114e-08 1 1 -4.37114e-08 214 6)" fill="#333333"/>
<rect width="3" height="3" transform="matrix(4.37114e-08 1 1 -4.37114e-08 214 3)" fill="#333333"/>
<rect width="3" height="3" transform="matrix(4.37114e-08 1 1 -4.37114e-08 217 6)" fill="#333333"/>
<line y1="-1.5" x2="40" y2="-1.5" transform="matrix(-1 0 0 1 232 12)" stroke="#333333" stroke-width="3"/>
</g>
<g opacity="0.8">
<rect x="27" y="6" width="3" height="3" transform="rotate(90 27 6)" fill="#333333"/>
<rect x="30" y="6" width="3" height="3" transform="rotate(90 30 6)" fill="#333333"/>
<rect x="33" y="3" width="3" height="3" transform="rotate(90 33 3)" fill="#333333"/>
<rect x="39" width="3" height="3" transform="rotate(90 39 0)" fill="#333333"/>
<rect x="39" y="3" width="3" height="3" transform="rotate(90 39 3)" fill="#333333"/>
<rect x="39" y="6" width="3" height="3" transform="rotate(90 39 6)" fill="#333333"/>
<rect x="36" y="6" width="3" height="3" transform="rotate(90 36 6)" fill="#333333"/>
<rect x="36" y="3" width="3" height="3" transform="rotate(90 36 3)" fill="#333333"/>
<rect x="33" y="6" width="3" height="3" transform="rotate(90 33 6)" fill="#333333"/>
<line x1="18" y1="10.5" x2="58" y2="10.5" stroke="#333333" stroke-width="3"/>
</g>
<g opacity="0.6">
<rect width="3" height="3" transform="matrix(4.37114e-08 1 1 -4.37114e-08 205 6)" fill="#333333"/>
<rect width="3" height="3" transform="matrix(4.37114e-08 1 1 -4.37114e-08 202 6)" fill="#333333"/>
<rect width="3" height="3" transform="matrix(4.37114e-08 1 1 -4.37114e-08 199 3)" fill="#333333"/>
<rect width="3" height="3" transform="matrix(4.37114e-08 1 1 -4.37114e-08 193 0)" fill="#333333"/>
<rect width="3" height="3" transform="matrix(4.37114e-08 1 1 -4.37114e-08 193 3)" fill="#333333"/>
<rect width="3" height="3" transform="matrix(4.37114e-08 1 1 -4.37114e-08 193 6)" fill="#333333"/>
<rect width="3" height="3" transform="matrix(4.37114e-08 1 1 -4.37114e-08 196 6)" fill="#333333"/>
<rect width="3" height="3" transform="matrix(4.37114e-08 1 1 -4.37114e-08 196 3)" fill="#333333"/>
<rect width="3" height="3" transform="matrix(4.37114e-08 1 1 -4.37114e-08 199 6)" fill="#333333"/>
<line y1="-1.5" x2="40" y2="-1.5" transform="matrix(-1 0 0 1 214 12)" stroke="#333333" stroke-width="3"/>
</g>
<g opacity="0.6">
<rect x="45" y="6" width="3" height="3" transform="rotate(90 45 6)" fill="#333333"/>
<rect x="48" y="6" width="3" height="3" transform="rotate(90 48 6)" fill="#333333"/>
<rect x="51" y="3" width="3" height="3" transform="rotate(90 51 3)" fill="#333333"/>
<rect x="57" width="3" height="3" transform="rotate(90 57 0)" fill="#333333"/>
<rect x="57" y="3" width="3" height="3" transform="rotate(90 57 3)" fill="#333333"/>
<rect x="57" y="6" width="3" height="3" transform="rotate(90 57 6)" fill="#333333"/>
<rect x="54" y="6" width="3" height="3" transform="rotate(90 54 6)" fill="#333333"/>
<rect x="54" y="3" width="3" height="3" transform="rotate(90 54 3)" fill="#333333"/>
<rect x="51" y="6" width="3" height="3" transform="rotate(90 51 6)" fill="#333333"/>
<line x1="36" y1="10.5" x2="76" y2="10.5" stroke="#333333" stroke-width="3"/>
</g>
</svg>
