<svg width="260" height="100" viewBox="0 0 260 100" fill="none" xmlns="http://www.w3.org/2000/svg">
<rect x="160" width="100" height="100" fill="#333333"/>
<rect width="100" height="100" fill="#333333"/>
<rect x="109" y="45" width="3" height="3" transform="rotate(90 109 45)" fill="#333333"/>
<rect x="109" y="51" width="3" height="3" transform="rotate(90 109 51)" fill="#333333"/>
<rect x="112" y="42" width="3" height="3" transform="rotate(90 112 42)" fill="#333333"/>
<rect x="112" y="51" width="3" height="3" transform="rotate(90 112 51)" fill="#333333"/>
<rect x="112" y="45" width="3" height="3" transform="rotate(90 112 45)" fill="#333333"/>
<rect x="112" y="54" width="3" height="3" transform="rotate(90 112 54)" fill="#333333"/>
<line x1="103" y1="49.5" x2="130" y2="49.5" stroke="#333333" stroke-width="3"/>
<rect width="3" height="3" transform="matrix(4.37114e-08 1 1 -4.37114e-08 151 45)" fill="#333333"/>
<rect width="3" height="3" transform="matrix(4.37114e-08 1 1 -4.37114e-08 151 51)" fill="#333333"/>
<rect width="3" height="3" transform="matrix(4.37114e-08 1 1 -4.37114e-08 148 42)" fill="#333333"/>
<rect width="3" height="3" transform="matrix(4.37114e-08 1 1 -4.37114e-08 148 51)" fill="#333333"/>
<rect width="3" height="3" transform="matrix(4.37114e-08 1 1 -4.37114e-08 148 45)" fill="#333333"/>
<rect width="3" height="3" transform="matrix(4.37114e-08 1 1 -4.37114e-08 148 54)" fill="#333333"/>
<line y1="-1.5" x2="27" y2="-1.5" transform="matrix(-1 0 0 1 157 51)" stroke="#333333" stroke-width="3"/>
</svg>
