<svg width="260" height="92" viewBox="0 0 260 92" fill="none" xmlns="http://www.w3.org/2000/svg">
<rect y="32" width="50" height="50" fill="#333333" fill-opacity="0.6"/>
<rect x="19" y="32" width="50" height="50" fill="#333333" fill-opacity="0.8"/>
<rect x="37" y="32" width="50" height="50" fill="#333333"/>
<rect x="260" y="82" width="50" height="50" transform="rotate(-180 260 82)" fill="#333333"/>
<rect x="250.151" y="66.1506" width="50" height="50" transform="rotate(150 250.151 66.1506)" fill="#333333" fill-opacity="0.8"/>
<rect x="232.151" y="47.8494" width="50" height="50" transform="rotate(120 232.151 47.8494)" fill="#333333" fill-opacity="0.6"/>
<path d="M224 12V9H205V0H202V3H196V6H190V9H184V12H224Z" fill="#333333"/>
<path d="M36 12V9H55V0H58V3H64V6H70V9H76V12H36Z" fill="#333333"/>
<path opacity="0.8" d="M242 12V9H223V0H220V3H214V6H208V9H202V12H242Z" fill="#333333"/>
<path opacity="0.8" d="M18 12V9H37V0H40V3H46V6H52V9H58V12H18Z" fill="#333333"/>
<path opacity="0.6" d="M260 12V9H241V0H238V3H232V6H226V9H220V12H260Z" fill="#333333"/>
<path opacity="0.6" d="M0 12V9H19V0H22V3H28V6H34V9H40V12H0Z" fill="#333333"/>
</svg>
