<svg width="250" height="45" viewBox="0 0 250 45" fill="none" xmlns="http://www.w3.org/2000/svg">
<path d="M9.375 41.875V29.375H3.125V26.25H9.375V23.125H12.5V20H21.875V23.125H15.625V26.25H21.875V29.375H15.625V41.875H9.375ZM28.125 41.875V38.75H25V29.375H28.125V26.25H43.75V29.375H46.875V38.75H43.75V41.875H28.125ZM31.25 38.75H40.625V29.375H31.25V38.75ZM50 41.875V26.25H68.75V29.375H71.875V41.875H65.625V29.375H56.25V41.875H50ZM84.375 41.875V29.375H78.125V26.25H84.375V20H90.625V26.25H96.875V29.375H90.625V41.875H84.375ZM103.125 32.5V29.375H121.875V32.5H103.125ZM125 41.875V38.75H140.625V35.625H128.125V32.5H125V29.375H128.125V26.25H143.75V29.375H131.25V32.5H143.75V35.625H146.875V38.75H143.75V41.875H125ZM159.375 41.875V29.375H153.125V26.25H159.375V20H165.625V26.25H171.875V29.375H165.625V41.875H159.375ZM178.125 45V41.875H190.625V38.75H178.125V35.625H175V26.25H181.25V35.625H190.625V26.25H196.875V41.875H193.75V45H178.125ZM203.125 41.875V38.75H209.375V23.125H206.25V20H215.625V38.75H221.875V41.875H203.125ZM228.125 41.875V38.75H225V29.375H228.125V26.25H243.75V29.375H246.875V35.625H231.25V38.75H243.75V41.875H228.125ZM231.25 32.5H240.625V29.375H231.25V32.5Z" fill="white"/>
<path d="M9.375 31.875V19.375H3.125V16.25H9.375V13.125H12.5V10H21.875V13.125H15.625V16.25H21.875V19.375H15.625V31.875H9.375ZM28.125 31.875V28.75H25V19.375H28.125V16.25H43.75V19.375H46.875V28.75H43.75V31.875H28.125ZM31.25 28.75H40.625V19.375H31.25V28.75ZM50 31.875V16.25H68.75V19.375H71.875V31.875H65.625V19.375H56.25V31.875H50ZM84.375 31.875V19.375H78.125V16.25H84.375V10H90.625V16.25H96.875V19.375H90.625V31.875H84.375ZM103.125 22.5V19.375H121.875V22.5H103.125ZM125 31.875V28.75H140.625V25.625H128.125V22.5H125V19.375H128.125V16.25H143.75V19.375H131.25V22.5H143.75V25.625H146.875V28.75H143.75V31.875H125ZM159.375 31.875V19.375H153.125V16.25H159.375V10H165.625V16.25H171.875V19.375H165.625V31.875H159.375ZM178.125 35V31.875H190.625V28.75H178.125V25.625H175V16.25H181.25V25.625H190.625V16.25H196.875V31.875H193.75V35H178.125ZM203.125 31.875V28.75H209.375V13.125H206.25V10H215.625V28.75H221.875V31.875H203.125ZM228.125 31.875V28.75H225V19.375H228.125V16.25H243.75V19.375H246.875V25.625H231.25V28.75H243.75V31.875H228.125ZM231.25 22.5H240.625V19.375H231.25V22.5Z" fill="black"/>
<path d="M9.375 21.875V9.375H3.125V6.25H9.375V3.125H12.5V0H21.875V3.125H15.625V6.25H21.875V9.375H15.625V21.875H9.375ZM28.125 21.875V18.75H25V9.375H28.125V6.25H43.75V9.375H46.875V18.75H43.75V21.875H28.125ZM31.25 18.75H40.625V9.375H31.25V18.75ZM50 21.875V6.25H68.75V9.375H71.875V21.875H65.625V9.375H56.25V21.875H50ZM84.375 21.875V9.375H78.125V6.25H84.375V0H90.625V6.25H96.875V9.375H90.625V21.875H84.375ZM103.125 12.5V9.375H121.875V12.5H103.125ZM125 21.875V18.75H140.625V15.625H128.125V12.5H125V9.375H128.125V6.25H143.75V9.375H131.25V12.5H143.75V15.625H146.875V18.75H143.75V21.875H125ZM159.375 21.875V9.375H153.125V6.25H159.375V0H165.625V6.25H171.875V9.375H165.625V21.875H159.375ZM178.125 25V21.875H190.625V18.75H178.125V15.625H175V6.25H181.25V15.625H190.625V6.25H196.875V21.875H193.75V25H178.125ZM203.125 21.875V18.75H209.375V3.125H206.25V0H215.625V18.75H221.875V21.875H203.125ZM228.125 21.875V18.75H225V9.375H228.125V6.25H243.75V9.375H246.875V15.625H231.25V18.75H243.75V21.875H228.125ZM231.25 12.5H240.625V9.375H231.25V12.5Z" fill="#333333"/>
</svg>
