<svg width="250" height="123" viewBox="0 0 250 123" fill="none" xmlns="http://www.w3.org/2000/svg">
<rect opacity="0.4" y="23" width="250" height="100" fill="#333333"/>
<rect opacity="0.6" x="25" y="23" width="200" height="100" fill="#333333"/>
<rect opacity="0.8" x="50" y="23" width="150" height="100" fill="#333333"/>
<rect x="75" y="23" width="100" height="100" fill="#333333"/>
<path d="M40 12V9H21V0H18V3H12V6H6V9H0V12H40Z" fill="#333333"/>
<path d="M210 12V9H229V0H232V3H238V6H244V9H250V12H210Z" fill="#333333"/>
<path opacity="0.8" d="M58 12V9H39V0H36V3H30V6H24V9H18V12H58Z" fill="#333333"/>
<path opacity="0.8" d="M192 12V9H211V0H214V3H220V6H226V9H232V12H192Z" fill="#333333"/>
<path opacity="0.6" d="M76 12V9H57V0H54V3H48V6H42V9H36V12H76Z" fill="#333333"/>
<path opacity="0.6" d="M174 12V9H193V0H196V3H202V6H208V9H214V12H174Z" fill="#333333"/>
</svg>
