<svg width="218" height="20" viewBox="0 0 218 20" fill="none" xmlns="http://www.w3.org/2000/svg">
<path d="M2.5 17.5V15H0V7.5H2.5V5H17.5V7.5H5V15H17.5V17.5H2.5ZM22.5 17.5V15H20V7.5H22.5V5H35V7.5H37.5V15H35V17.5H22.5ZM25 15H32.5V7.5H25V15ZM40 17.5V5H55V7.5H57.5V17.5H52.5V7.5H50V17.5H45V7.5H42.5V17.5H40ZM67.5 2.5V0H72.5V2.5H67.5ZM62.5 17.5V15H67.5V7.5H65V5H72.5V15H77.5V17.5H62.5ZM80 17.5V5H95V7.5H97.5V17.5H92.5V7.5H85V17.5H80ZM102.5 20V17.5H112.5V15H102.5V12.5H100V7.5H102.5V5H117.5V17.5H115V20H102.5ZM105 12.5H112.5V7.5H105V12.5ZM140 17.5V15H152.5V12.5H142.5V10H140V7.5H142.5V5H155V7.5H145V10H155V12.5H157.5V15H155V17.5H140ZM162.5 17.5V15H160V7.5H162.5V5H175V7.5H177.5V15H175V17.5H162.5ZM165 15H172.5V7.5H165V15ZM182.5 17.5V15H180V7.5H182.5V5H195V7.5H197.5V15H195V17.5H182.5ZM185 15H192.5V7.5H185V15ZM200 17.5V5H215V7.5H217.5V17.5H212.5V7.5H205V17.5H200Z" fill="#333333"/>
</svg>
